<svg width="40" height="40" viewBox="0 0 40 40" fill="none" xmlns="http://www.w3.org/2000/svg">
<g clip-path="url(#clip0_211_3407)">
<path d="M20 2.5C16.6848 2.5 13.5054 3.81696 11.1612 6.16117C8.81696 8.50537 7.5 11.6848 7.5 15V17.5H10C10.663 17.5 11.2989 17.7634 11.7678 18.2322C12.2366 18.7011 12.5 19.337 12.5 20V27.5C12.5 28.163 12.2366 28.7989 11.7678 29.2678C11.2989 29.7366 10.663 30 10 30H7.5C6.83696 30 6.20107 29.7366 5.73223 29.2678C5.26339 28.7989 5 28.163 5 27.5V15C5 13.0302 5.38799 11.0796 6.14181 9.25975C6.89563 7.43986 8.00052 5.78628 9.3934 4.3934C10.7863 3.00052 12.4399 1.89563 14.2597 1.14181C16.0796 0.387986 18.0302 0 20 0C21.9698 0 23.9204 0.387986 25.7403 1.14181C27.5601 1.89563 29.2137 3.00052 30.6066 4.3934C31.9995 5.78628 33.1044 7.43986 33.8582 9.25975C34.612 11.0796 35 13.0302 35 15V30C35 31.6576 34.3415 33.2473 33.1694 34.4194C31.9973 35.5915 30.4076 36.25 28.75 36.25H23.415C23.1956 36.63 22.88 36.9456 22.5 37.165C22.1199 37.3845 21.6888 37.5 21.25 37.5H18.75C18.087 37.5 17.4511 37.2366 16.9822 36.7678C16.5134 36.2989 16.25 35.663 16.25 35C16.25 34.337 16.5134 33.7011 16.9822 33.2322C17.4511 32.7634 18.087 32.5 18.75 32.5H21.25C21.6888 32.5 22.1199 32.6155 22.5 32.835C22.88 33.0544 23.1956 33.37 23.415 33.75H28.75C29.7446 33.75 30.6984 33.3549 31.4017 32.6516C32.1049 31.9484 32.5 30.9946 32.5 30H30C29.337 30 28.7011 29.7366 28.2322 29.2678C27.7634 28.7989 27.5 28.163 27.5 27.5V20C27.5 19.337 27.7634 18.7011 28.2322 18.2322C28.7011 17.7634 29.337 17.5 30 17.5H32.5V15C32.5 13.3585 32.1767 11.733 31.5485 10.2165C30.9203 8.69989 29.9996 7.3219 28.8388 6.16117C27.6781 5.00043 26.3001 4.07969 24.7835 3.45151C23.267 2.82332 21.6415 2.5 20 2.5Z" fill="#F1F1F1"/>
</g>
<defs>
<clipPath id="clip0_211_3407">
<rect width="40" height="40" fill="white"/>
</clipPath>
</defs>
</svg>
