<svg width="1000" height="251" viewBox="0 0 1000 251" fill="none" xmlns="http://www.w3.org/2000/svg">
<path d="M51.5 96.5C66.4204 96.5 78.5 108.373 78.5 123C78.5 137.627 66.4204 149.5 51.5 149.5C36.5796 149.5 24.5 137.627 24.5 123C24.5 108.373 36.5796 96.5 51.5 96.5Z" fill="#F1F1F1" stroke="#F1F1F1"/>
<circle cx="27" cy="62" r="26.5" fill="#F1F1F1" stroke="#F1F1F1"/>
<path d="M127.5 0.5C142.42 0.5 154.5 12.3731 154.5 27C154.5 41.6269 142.42 53.5 127.5 53.5C112.58 53.5 100.5 41.6269 100.5 27C100.5 12.3731 112.58 0.5 127.5 0.5Z" fill="#F1F1F1" stroke="#F1F1F1"/>
<ellipse cx="127.5" cy="126" rx="27.5" ry="27" fill="#F1F1F1"/>
<circle cx="149" cy="207" r="27" fill="#F1F1F1"/>
<ellipse cx="39.5" cy="214" rx="27.5" ry="27" fill="#F1F1F1"/>
<line x1="53.6575" y1="207.933" x2="94.3793" y2="191.644" stroke="#F1F1F1" stroke-width="18"/>
<line x1="147.291" y1="202.272" x2="129.291" y2="133.272" stroke="#F1F1F1" stroke-width="18"/>
<line x1="47.1813" y1="115.923" x2="29.5351" y2="67.0568" stroke="#F1F1F1" stroke-width="18"/>
<line x1="82.5347" y1="50.3338" x2="130.044" y2="23.1859" stroke="#F1F1F1" stroke-width="18"/>
<path d="M244.938 156.688C247.146 156.688 249.104 156.271 250.812 155.438C252.521 154.562 253.854 153.354 254.812 151.812C255.812 150.229 256.333 148.375 256.375 146.25H273.312C273.271 151 272 155.229 269.5 158.938C267 162.604 263.646 165.5 259.438 167.625C255.229 169.708 250.521 170.75 245.312 170.75C240.062 170.75 235.479 169.875 231.562 168.125C227.688 166.375 224.458 163.958 221.875 160.875C219.292 157.75 217.354 154.125 216.062 150C214.771 145.833 214.125 141.375 214.125 136.625V134.812C214.125 130.021 214.771 125.562 216.062 121.438C217.354 117.271 219.292 113.646 221.875 110.562C224.458 107.438 227.688 105 231.562 103.25C235.438 101.5 239.979 100.625 245.188 100.625C250.729 100.625 255.583 101.688 259.75 103.812C263.958 105.938 267.25 108.979 269.625 112.938C272.042 116.854 273.271 121.5 273.312 126.875H256.375C256.333 124.625 255.854 122.583 254.938 120.75C254.062 118.917 252.771 117.458 251.062 116.375C249.396 115.25 247.333 114.688 244.875 114.688C242.25 114.688 240.104 115.25 238.438 116.375C236.771 117.458 235.479 118.958 234.562 120.875C233.646 122.75 233 124.896 232.625 127.312C232.292 129.688 232.125 132.188 232.125 134.812V136.625C232.125 139.25 232.292 141.771 232.625 144.188C232.958 146.604 233.583 148.75 234.5 150.625C235.458 152.5 236.771 153.979 238.438 155.062C240.104 156.146 242.271 156.688 244.938 156.688ZM280.875 136.375V135.062C280.875 130.104 281.583 125.542 283 121.375C284.417 117.167 286.479 113.521 289.188 110.438C291.896 107.354 295.229 104.958 299.188 103.25C303.146 101.5 307.688 100.625 312.812 100.625C317.938 100.625 322.5 101.5 326.5 103.25C330.5 104.958 333.854 107.354 336.562 110.438C339.312 113.521 341.396 117.167 342.812 121.375C344.229 125.542 344.938 130.104 344.938 135.062V136.375C344.938 141.292 344.229 145.854 342.812 150.062C341.396 154.229 339.312 157.875 336.562 161C333.854 164.083 330.521 166.479 326.562 168.188C322.604 169.896 318.062 170.75 312.938 170.75C307.812 170.75 303.25 169.896 299.25 168.188C295.292 166.479 291.938 164.083 289.188 161C286.479 157.875 284.417 154.229 283 150.062C281.583 145.854 280.875 141.292 280.875 136.375ZM298.875 135.062V136.375C298.875 139.208 299.125 141.854 299.625 144.312C300.125 146.771 300.917 148.938 302 150.812C303.125 152.646 304.583 154.083 306.375 155.125C308.167 156.167 310.354 156.688 312.938 156.688C315.438 156.688 317.583 156.167 319.375 155.125C321.167 154.083 322.604 152.646 323.688 150.812C324.771 148.938 325.562 146.771 326.062 144.312C326.604 141.854 326.875 139.208 326.875 136.375V135.062C326.875 132.312 326.604 129.729 326.062 127.312C325.562 124.854 324.75 122.688 323.625 120.812C322.542 118.896 321.104 117.396 319.312 116.312C317.521 115.229 315.354 114.688 312.812 114.688C310.271 114.688 308.104 115.229 306.312 116.312C304.562 117.396 303.125 118.896 302 120.812C300.917 122.688 300.125 124.854 299.625 127.312C299.125 129.729 298.875 132.312 298.875 135.062ZM373.625 116.312V169.5H355.625V101.875H372.5L373.625 116.312ZM371 133.312H366.125C366.125 128.312 366.771 123.812 368.062 119.812C369.354 115.771 371.167 112.333 373.5 109.5C375.833 106.625 378.604 104.438 381.812 102.938C385.062 101.396 388.688 100.625 392.688 100.625C395.854 100.625 398.75 101.083 401.375 102C404 102.917 406.25 104.375 408.125 106.375C410.042 108.375 411.5 111.021 412.5 114.312C413.542 117.604 414.062 121.625 414.062 126.375V169.5H395.938V126.312C395.938 123.312 395.521 120.979 394.688 119.312C393.854 117.646 392.625 116.479 391 115.812C389.417 115.104 387.458 114.75 385.125 114.75C382.708 114.75 380.604 115.229 378.812 116.188C377.062 117.146 375.604 118.479 374.438 120.188C373.312 121.854 372.458 123.812 371.875 126.062C371.292 128.312 371 130.729 371 133.312ZM445.375 116.312V169.5H427.375V101.875H444.25L445.375 116.312ZM442.75 133.312H437.875C437.875 128.312 438.521 123.812 439.812 119.812C441.104 115.771 442.917 112.333 445.25 109.5C447.583 106.625 450.354 104.438 453.562 102.938C456.812 101.396 460.438 100.625 464.438 100.625C467.604 100.625 470.5 101.083 473.125 102C475.75 102.917 478 104.375 479.875 106.375C481.792 108.375 483.25 111.021 484.25 114.312C485.292 117.604 485.812 121.625 485.812 126.375V169.5H467.688V126.312C467.688 123.312 467.271 120.979 466.438 119.312C465.604 117.646 464.375 116.479 462.75 115.812C461.167 115.104 459.208 114.75 456.875 114.75C454.458 114.75 452.354 115.229 450.562 116.188C448.812 117.146 447.354 118.479 446.188 120.188C445.062 121.854 444.208 123.812 443.625 126.062C443.042 128.312 442.75 130.729 442.75 133.312ZM530.625 170.75C525.375 170.75 520.667 169.917 516.5 168.25C512.333 166.542 508.792 164.188 505.875 161.188C503 158.188 500.792 154.708 499.25 150.75C497.708 146.75 496.938 142.5 496.938 138V135.5C496.938 130.375 497.667 125.688 499.125 121.438C500.583 117.188 502.667 113.5 505.375 110.375C508.125 107.25 511.458 104.854 515.375 103.188C519.292 101.479 523.708 100.625 528.625 100.625C533.417 100.625 537.667 101.417 541.375 103C545.083 104.583 548.188 106.833 550.688 109.75C553.229 112.667 555.146 116.167 556.438 120.25C557.729 124.292 558.375 128.792 558.375 133.75V141.25H504.625V129.25H540.688V127.875C540.688 125.375 540.229 123.146 539.312 121.188C538.438 119.188 537.104 117.604 535.312 116.438C533.521 115.271 531.229 114.688 528.438 114.688C526.062 114.688 524.021 115.208 522.312 116.25C520.604 117.292 519.208 118.75 518.125 120.625C517.083 122.5 516.292 124.708 515.75 127.25C515.25 129.75 515 132.5 515 135.5V138C515 140.708 515.375 143.208 516.125 145.5C516.917 147.792 518.021 149.771 519.438 151.438C520.896 153.104 522.646 154.396 524.688 155.312C526.771 156.229 529.125 156.688 531.75 156.688C535 156.688 538.021 156.062 540.812 154.812C543.646 153.521 546.083 151.583 548.125 149L556.875 158.5C555.458 160.542 553.521 162.5 551.062 164.375C548.646 166.25 545.729 167.792 542.312 169C538.896 170.167 535 170.75 530.625 170.75ZM596.562 156.688C598.771 156.688 600.729 156.271 602.438 155.438C604.146 154.562 605.479 153.354 606.438 151.812C607.438 150.229 607.958 148.375 608 146.25H624.938C624.896 151 623.625 155.229 621.125 158.938C618.625 162.604 615.271 165.5 611.062 167.625C606.854 169.708 602.146 170.75 596.938 170.75C591.688 170.75 587.104 169.875 583.188 168.125C579.312 166.375 576.083 163.958 573.5 160.875C570.917 157.75 568.979 154.125 567.688 150C566.396 145.833 565.75 141.375 565.75 136.625V134.812C565.75 130.021 566.396 125.562 567.688 121.438C568.979 117.271 570.917 113.646 573.5 110.562C576.083 107.438 579.312 105 583.188 103.25C587.062 101.5 591.604 100.625 596.812 100.625C602.354 100.625 607.208 101.688 611.375 103.812C615.583 105.938 618.875 108.979 621.25 112.938C623.667 116.854 624.896 121.5 624.938 126.875H608C607.958 124.625 607.479 122.583 606.562 120.75C605.688 118.917 604.396 117.458 602.688 116.375C601.021 115.25 598.958 114.688 596.5 114.688C593.875 114.688 591.729 115.25 590.062 116.375C588.396 117.458 587.104 118.958 586.188 120.875C585.271 122.75 584.625 124.896 584.25 127.312C583.917 129.688 583.75 132.188 583.75 134.812V136.625C583.75 139.25 583.917 141.771 584.25 144.188C584.583 146.604 585.208 148.75 586.125 150.625C587.083 152.5 588.396 153.979 590.062 155.062C591.729 156.146 593.896 156.688 596.562 156.688ZM668.5 101.875V114.625H629.125V101.875H668.5ZM638.875 85.1875H656.875V149.125C656.875 151.083 657.125 152.583 657.625 153.625C658.167 154.667 658.958 155.396 660 155.812C661.042 156.188 662.354 156.375 663.938 156.375C665.062 156.375 666.062 156.333 666.938 156.25C667.854 156.125 668.625 156 669.25 155.875L669.312 169.125C667.771 169.625 666.104 170.021 664.312 170.312C662.521 170.604 660.542 170.75 658.375 170.75C654.417 170.75 650.958 170.104 648 168.812C645.083 167.479 642.833 165.354 641.25 162.438C639.667 159.521 638.875 155.688 638.875 150.938V85.1875ZM701.688 169.5H683.562V95.875C683.562 90.75 684.562 86.4375 686.562 82.9375C688.604 79.3958 691.458 76.7292 695.125 74.9375C698.833 73.1042 703.229 72.1875 708.312 72.1875C709.979 72.1875 711.583 72.3125 713.125 72.5625C714.667 72.7708 716.167 73.0417 717.625 73.375L717.438 86.9375C716.646 86.7292 715.812 86.5833 714.938 86.5C714.062 86.4167 713.042 86.375 711.875 86.375C709.708 86.375 707.854 86.75 706.312 87.5C704.812 88.2083 703.667 89.2708 702.875 90.6875C702.083 92.1042 701.688 93.8333 701.688 95.875V169.5ZM715.188 101.875V114.625H673.5V101.875H715.188ZM744.688 161.875L762.625 101.875H781.938L754.75 179.688C754.167 181.396 753.375 183.229 752.375 185.188C751.417 187.146 750.104 189 748.438 190.75C746.812 192.542 744.75 194 742.25 195.125C739.792 196.25 736.771 196.812 733.188 196.812C731.479 196.812 730.083 196.708 729 196.5C727.917 196.292 726.625 196 725.125 195.625V182.438C725.583 182.438 726.062 182.438 726.562 182.438C727.062 182.479 727.542 182.5 728 182.5C730.375 182.5 732.312 182.229 733.812 181.688C735.312 181.146 736.521 180.312 737.438 179.188C738.354 178.104 739.083 176.688 739.625 174.938L744.688 161.875ZM737.188 101.875L751.875 150.875L754.438 169.938L742.188 171.25L717.875 101.875H737.188ZM780.75 160.812C780.75 158.146 781.667 155.917 783.5 154.125C785.375 152.333 787.854 151.438 790.938 151.438C794.021 151.438 796.479 152.333 798.312 154.125C800.188 155.917 801.125 158.146 801.125 160.812C801.125 163.479 800.188 165.708 798.312 167.5C796.479 169.292 794.021 170.188 790.938 170.188C787.854 170.188 785.375 169.292 783.5 167.5C781.667 165.708 780.75 163.479 780.75 160.812ZM835 114.875V195.5H817V101.875H833.688L835 114.875ZM877.812 134.938V136.25C877.812 141.167 877.229 145.729 876.062 149.938C874.938 154.146 873.271 157.812 871.062 160.938C868.854 164.021 866.104 166.438 862.812 168.188C859.562 169.896 855.812 170.75 851.562 170.75C847.438 170.75 843.854 169.917 840.812 168.25C837.771 166.583 835.208 164.25 833.125 161.25C831.083 158.208 829.438 154.688 828.188 150.688C826.938 146.688 825.979 142.396 825.312 137.812V134.375C825.979 129.458 826.938 124.958 828.188 120.875C829.438 116.75 831.083 113.188 833.125 110.188C835.208 107.146 837.75 104.792 840.75 103.125C843.792 101.458 847.354 100.625 851.438 100.625C855.729 100.625 859.5 101.438 862.75 103.062C866.042 104.688 868.792 107.021 871 110.062C873.25 113.104 874.938 116.729 876.062 120.938C877.229 125.146 877.812 129.812 877.812 134.938ZM859.75 136.25V134.938C859.75 132.062 859.5 129.417 859 127C858.542 124.542 857.792 122.396 856.75 120.562C855.75 118.729 854.417 117.312 852.75 116.312C851.125 115.271 849.146 114.75 846.812 114.75C844.354 114.75 842.25 115.146 840.5 115.938C838.792 116.729 837.396 117.875 836.312 119.375C835.229 120.875 834.417 122.667 833.875 124.75C833.333 126.833 833 129.188 832.875 131.812V140.5C833.083 143.583 833.667 146.354 834.625 148.812C835.583 151.229 837.062 153.146 839.062 154.562C841.062 155.979 843.688 156.688 846.938 156.688C849.312 156.688 851.312 156.167 852.938 155.125C854.562 154.042 855.875 152.562 856.875 150.688C857.917 148.812 858.646 146.646 859.062 144.188C859.521 141.729 859.75 139.083 859.75 136.25ZM907 116.625V169.5H889V101.875H905.938L907 116.625ZM927.375 101.438L927.062 118.125C926.188 118 925.125 117.896 923.875 117.812C922.667 117.688 921.562 117.625 920.562 117.625C918.021 117.625 915.812 117.958 913.938 118.625C912.104 119.25 910.562 120.188 909.312 121.438C908.104 122.688 907.188 124.208 906.562 126C905.979 127.792 905.646 129.833 905.562 132.125L901.938 131C901.938 126.625 902.375 122.604 903.25 118.938C904.125 115.229 905.396 112 907.062 109.25C908.771 106.5 910.854 104.375 913.312 102.875C915.771 101.375 918.583 100.625 921.75 100.625C922.75 100.625 923.771 100.708 924.812 100.875C925.854 101 926.708 101.188 927.375 101.438ZM931.125 136.375V135.062C931.125 130.104 931.833 125.542 933.25 121.375C934.667 117.167 936.729 113.521 939.438 110.438C942.146 107.354 945.479 104.958 949.438 103.25C953.396 101.5 957.938 100.625 963.062 100.625C968.188 100.625 972.75 101.5 976.75 103.25C980.75 104.958 984.104 107.354 986.812 110.438C989.562 113.521 991.646 117.167 993.062 121.375C994.479 125.542 995.188 130.104 995.188 135.062V136.375C995.188 141.292 994.479 145.854 993.062 150.062C991.646 154.229 989.562 157.875 986.812 161C984.104 164.083 980.771 166.479 976.812 168.188C972.854 169.896 968.312 170.75 963.188 170.75C958.062 170.75 953.5 169.896 949.5 168.188C945.542 166.479 942.188 164.083 939.438 161C936.729 157.875 934.667 154.229 933.25 150.062C931.833 145.854 931.125 141.292 931.125 136.375ZM949.125 135.062V136.375C949.125 139.208 949.375 141.854 949.875 144.312C950.375 146.771 951.167 148.938 952.25 150.812C953.375 152.646 954.833 154.083 956.625 155.125C958.417 156.167 960.604 156.688 963.188 156.688C965.688 156.688 967.833 156.167 969.625 155.125C971.417 154.083 972.854 152.646 973.938 150.812C975.021 148.938 975.812 146.771 976.312 144.312C976.854 141.854 977.125 139.208 977.125 136.375V135.062C977.125 132.312 976.854 129.729 976.312 127.312C975.812 124.854 975 122.688 973.875 120.812C972.792 118.896 971.354 117.396 969.562 116.312C967.771 115.229 965.604 114.688 963.062 114.688C960.521 114.688 958.354 115.229 956.562 116.312C954.812 117.396 953.375 118.896 952.25 120.812C951.167 122.688 950.375 124.854 949.875 127.312C949.375 129.729 949.125 132.312 949.125 135.062Z" fill="white"/>
</svg>
