<svg width="24" height="24" viewBox="0 0 24 24" fill="none" xmlns="http://www.w3.org/2000/svg">
<path fill-rule="evenodd" clip-rule="evenodd" d="M18.008 2.98697C19.34 2.22497 21 3.18697 21 4.72297V17.277C21 18.812 19.341 19.775 18.008 19.013L14 16.723V5.27697L18.008 2.98697ZM12 5.99997H6.99997C5.76002 5.99872 4.56384 6.45825 3.64364 7.28934C2.72344 8.12043 2.14487 9.2638 2.02026 10.4975C1.89565 11.7311 2.23387 12.9671 2.96928 13.9654C3.70469 14.9638 4.78482 15.6532 5.99997 15.9V19.5C5.99997 20.163 6.26336 20.7989 6.7322 21.2677C7.20104 21.7366 7.83693 22 8.49997 22C9.16301 22 9.7989 21.7366 10.2677 21.2677C10.7366 20.7989 11 20.163 11 19.5V16H12V5.99997Z" fill="#7D8398"/>
</svg>
