<svg width="40" height="40" viewBox="0 0 40 40" fill="none" xmlns="http://www.w3.org/2000/svg">
<path d="M33.4 14.5167V6.66666H25.5667L20 1.14999L14.5167 6.66666H6.66669V14.5167L1.15002 20L6.66669 25.5667V33.4H14.5167L20 38.9167L25.5667 33.4H33.4V25.5667L38.9167 20L33.4 14.5167ZM14.7167 11.75C16.35 11.75 17.6667 13.0667 17.6667 14.7167C17.6667 15.499 17.3559 16.2494 16.8027 16.8026C16.2494 17.3559 15.4991 17.6667 14.7167 17.6667C13.0667 17.6667 11.75 16.35 11.75 14.7167C11.75 13.0667 13.0667 11.75 14.7167 11.75ZM25.3667 28.3333C23.7334 28.3333 22.4167 27 22.4167 25.3667C22.4167 24.5843 22.7275 23.8339 23.2807 23.2807C23.834 22.7275 24.5843 22.4167 25.3667 22.4167C27 22.4167 28.3334 23.7333 28.3334 25.3667C28.3334 26.1535 28.0208 26.9081 27.4644 27.4644C26.9081 28.0208 26.1535 28.3333 25.3667 28.3333ZM14.1667 28.3833L11.6667 25.8833L25.8834 11.6667L28.3834 14.1667L14.1667 28.3833Z" fill="#F1F1F1"/>
</svg>
